<?xml version="1.0" standalone="no"?><!DOCTYPE svg PUBLIC "-//W3C//DTD SVG 1.1//EN" "http://www.w3.org/Graphics/SVG/1.1/DTD/svg11.dtd"><svg t="1623243048760" class="icon" viewBox="0 0 1024 1024" version="1.1" xmlns="http://www.w3.org/2000/svg" p-id="1467" xmlns:xlink="http://www.w3.org/1999/xlink" width="200" height="200"><defs><style type="text/css"></style></defs><path d="M800 960H224c-52.9 0-96-43.1-96-96V240c0-52.9 43.1-96 96-96h576c52.9 0 96 43.1 96 96v624c0 52.9-43.1 96-96 96zM224 208c-17.6 0-32 14.4-32 32v624c0 17.6 14.4 32 32 32h576c17.6 0 32-14.4 32-32V240c0-17.6-14.4-32-32-32H224z" fill="#333333" p-id="1468"></path><path d="M352 288c-17.7 0-32-14.3-32-32V96c0-17.7 14.3-32 32-32s32 14.3 32 32v160c0 17.7-14.3 32-32 32zM673 288c-17.7 0-32-14.3-32-32V96c0-17.7 14.3-32 32-32s32 14.3 32 32v160c0 17.7-14.3 32-32 32zM856 384H160c-17.7 0-32-14.3-32-32s14.3-32 32-32h696c17.7 0 32 14.3 32 32s-14.3 32-32 32zM352 576h-48c-17.7 0-32-14.3-32-32s14.3-32 32-32h48c17.7 0 32 14.3 32 32s-14.3 32-32 32zM352 768h-48c-17.7 0-32-14.3-32-32s14.3-32 32-32h48c17.7 0 32 14.3 32 32s-14.3 32-32 32zM536 576h-48c-17.7 0-32-14.3-32-32s14.3-32 32-32h48c17.7 0 32 14.3 32 32s-14.3 32-32 32zM536 768h-48c-17.7 0-32-14.3-32-32s14.3-32 32-32h48c17.7 0 32 14.3 32 32s-14.3 32-32 32z" fill="#333333" p-id="1469"></path><path d="M720 576h-48c-17.7 0-32-14.3-32-32s14.3-32 32-32h48c17.7 0 32 14.3 32 32s-14.3 32-32 32zM720 768h-48c-17.7 0-32-14.3-32-32s14.3-32 32-32h48c17.7 0 32 14.3 32 32s-14.3 32-32 32z" fill="#333333" p-id="1470"></path></svg>