<?xml version="1.0" standalone="no"?><!DOCTYPE svg PUBLIC "-//W3C//DTD SVG 1.1//EN"
    "http://www.w3.org/Graphics/SVG/1.1/DTD/svg11.dtd">
<svg t="1566866967603" class="icon" viewBox="0 0 1024 1024" version="1.1" xmlns="http://www.w3.org/2000/svg"
     p-id="12830" xmlns:xlink="http://www.w3.org/1999/xlink" width="112" height="112">
    <defs>
        <style type="text/css"></style>
    </defs>
    <path
        d="M916.23451733 477.51649173L547.318336 477.51649173 547.318336 255.34498133 696.308 255.34498133 696.308 34.66668053 331.7635616 34.66668053 331.7635616 255.34498133 478.22732907 255.34498133 478.22732907 477.51649173 108.1573568 477.51649173 108.1573568 534.23985493 108.1573568 551.07119467 108.1573568 771.74949653 34.4369952 771.74949653 34.4369952 989.33331947 254.03822507 989.33331947 254.03822507 771.74949653 181.86461973 771.74949653 181.86461973 551.07119467 478.22732907 551.07119467 478.22732907 771.74949653 402.9722176 771.74949653 402.9722176 989.33331947 622.57344747 989.33331947 622.57344747 771.74949653 547.318336 771.74949653 547.318336 551.07119467 842.90712107 551.07119467 842.90712107 771.74949653 769.98797333 771.74949653 769.98797333 989.33331947 989.5619136 989.33331947 989.5619136 771.74949653 916.23451733 771.74949653Z"
        p-id="12831"></path>
</svg>
