<?xml version="1.0" standalone="no"?><!DOCTYPE svg PUBLIC "-//W3C//DTD SVG 1.1//EN" "http://www.w3.org/Graphics/SVG/1.1/DTD/svg11.dtd"><svg t="1569116572526" class="icon" viewBox="0 0 1024 1024" version="1.1" xmlns="http://www.w3.org/2000/svg" p-id="1764" xmlns:xlink="http://www.w3.org/1999/xlink" width="200" height="200"><defs><style type="text/css"></style></defs><path d="M944.883081 784.17182 944.883081 65.163115c-2.898003-0.151449-5.935176-0.391926-8.621355-0.391926-203.078185 0-529.800411-0.12075-732.87962 0.2415-13.431917 0.030699-27.364231 2.052752-40.179095 5.947456-51.588959 15.72617-83.811848 60.975746-83.827197 116.307959-0.060375 232.132918-0.030699 391.817804-0.01535 623.951745 0 2.958378 0.029676 5.916756 0.12075 8.904811 1.298576 41.537022 16.346293 86.408999 50.335409 112.610754 23.893176 18.443048 51.362808 27.333532 81.820494 27.333532l732.279962 0 0-3.563152c0.966001 0.061398 0.966001 0.061398 0.966001 0.12075L944.883081 890.668319c-18.35095-10.716063-30.91101-30.426987-30.91101-53.248761C913.972071 814.598806 926.532131 794.887882 944.883081 784.17182zM869.291452 899.220089 203.018833 899.220089c-34.140565 0-61.820997-27.67327-61.820997-61.813834 0-34.140565 27.680433-61.813834 61.820997-61.813834l666.272619 0c-10.610662 18.35095-17.146519 39.173185-17.146519 61.813834C852.144934 860.044858 858.68079 880.869139 869.291452 899.220089zM883.069247 713.778586l-11.316743 0c-169.662121 0-462.960097 0.045025-632.623241-0.317225-33.900088-0.061398-67.88511-0.257873-98.792027 20.088524l0-11.230786c0-192.980199 0.38374-341.526397-0.429789-534.508643-0.1361-33.506115 23.171746-63.352887 64.829518-63.232137 181.809789 0.452301 487.255433 0.037862 669.052942 0.037862l9.279341 0L883.069247 713.778586z" p-id="1765" fill="#cdcdcd"></path><path d="M624.538099 272.954649c-14.236236-12.152784-31.42778-20.549012-51.578726-25.189705-14.394848-3.358491-35.266202-5.037736-62.615083-5.037736L389.192 242.727207l0 351.700107 126.909411 0c21.269419 0 40.101323-1.998517 56.497759-5.997598 16.391319-3.996011 30.385031-9.873882 41.983183-17.633612 11.594059-7.755638 22.270213-18.389836 32.027437-31.907711 9.753131-13.512758 17.752316-30.587646 23.990391-51.219545 6.237051-20.6319 9.355065-44.299949 9.355065-71.01131 0-31.344892-4.599761-59.21566-13.794168-83.607186C656.963603 308.662919 643.090641 288.630676 624.538099 272.954649zM622.739127 483.7107c-6.158257 18.634406-14.754029 33.466206-25.789363 44.503587-7.838525 7.838525-18.351973 13.913894-31.547507 18.232247-13.19451 4.318352-31.389918 6.477528-54.578036 6.477528l-75.090209 0L435.734012 284.229436l73.890894 0c27.668153 0 47.741327 2.399653 60.216453 7.196912 17.272385 6.716982 31.945573 19.953448 44.022633 39.70428 12.072967 19.754926 18.111496 48.021713 18.111496 84.806501C631.975489 442.488857 628.895337 465.080387 622.739127 483.7107z" p-id="1766" fill="#cdcdcd"></path></svg>