<?xml version="1.0" standalone="no"?><!DOCTYPE svg PUBLIC "-//W3C//DTD SVG 1.1//EN" "http://www.w3.org/Graphics/SVG/1.1/DTD/svg11.dtd"><svg t="1566878402440" class="icon" viewBox="0 0 1638 1024" version="1.1" xmlns="http://www.w3.org/2000/svg" p-id="2176" xmlns:xlink="http://www.w3.org/1999/xlink" width="179.15625" height="112"><defs><style type="text/css"></style></defs><path d="M0 507.329403C201.757798 169.132552 475.727961 0 821.773982 0c519.205538 0 750.380661 494.702477 764.509167 507.329403 14.128506 12.558672-242.983005 506.100837-764.440914 516.475392C474.158127 1030.698414 200.187964 858.562701 0 507.329403z m89.275778 5.460292c212.951397 301.339878 455.866148 446.310637 728.471238 434.844023 408.975889-17.199921 693.866636-431.090072 681.78574-440.304315-12.080897-9.282497-236.771922-429.520238-681.78574-429.520239-296.698629 0-539.476873 144.970759-728.471238 434.912277zM784.917009 819.043836a307.141438 307.141438 0 1 1 0-614.282877 307.141438 307.141438 0 0 1 0 614.282877z m0-68.253653a238.887785 238.887785 0 1 0 0-477.775571 238.887785 238.887785 0 0 0 0 477.775571z" fill="#cdcdcd" p-id="2177"></path></svg>