<?xml version="1.0" standalone="no"?><!DOCTYPE svg PUBLIC "-//W3C//DTD SVG 1.1//EN" "http://www.w3.org/Graphics/SVG/1.1/DTD/svg11.dtd"><svg t="1566878419224" class="icon" viewBox="0 0 1520 1024" version="1.1" xmlns="http://www.w3.org/2000/svg" p-id="1114" xmlns:xlink="http://www.w3.org/1999/xlink" width="166.25" height="112"><defs><style type="text/css"></style></defs><path d="M68.882662 507.701915A840.110974 840.110974 0 0 1 1030.021117 198.051817l45.063424-45.063424A901.268478 901.268478 0 0 0 10.943974 491.607835L0 507.701915l10.943974 16.09408A901.268478 901.268478 0 0 0 392.051788 841.815015l43.775897-43.775898a845.261079 845.261079 0 0 1-366.945023-290.337202z m914.143742 0a225.317119 225.317119 0 0 0-44.419661-133.902745l-37.338265 40.557081A169.953484 169.953484 0 0 1 663.076094 648.686055l-40.557081 40.557082a225.317119 225.317119 0 0 0 133.902745 44.419661 227.248409 227.248409 0 0 0 227.248409-225.960883z m-226.604646-170.597248a168.665958 168.665958 0 0 1 103.002112 36.05074l41.844608-40.557082a225.317119 225.317119 0 0 0-143.559194-52.144819 227.248409 227.248409 0 0 0-228.535935 227.248409 224.029593 224.029593 0 0 0 45.063424 133.902745L579.386878 648.686055l39.913319-39.913318a168.665958 168.665958 0 0 1-36.050739-103.002112 170.597248 170.597248 0 0 1 173.1723-168.665958z m745.477784 154.503168a901.268478 901.268478 0 0 0-368.876313-311.581388l-43.775898 43.775898a844.617316 844.617316 0 0 1 354.713523 283.89957 844.617316 844.617316 0 0 1-687.539096 353.425996 842.042263 842.042263 0 0 1-261.367859-43.132134l-44.41966 45.707187a901.268478 901.268478 0 0 0 307.075045 54.076108 901.268478 901.268478 0 0 0 744.190258-394.62684l10.943974-16.09408z" fill="#cdcdcd" p-id="1115"></path><path d="M356.001049 1024a28.325581 28.325581 0 0 1-19.95666-48.28224l965.644798-965.644797a28.325581 28.325581 0 1 1 39.913318 39.913318l-965.644797 965.644797a28.325581 28.325581 0 0 1-19.956659 8.368922z" fill="#cdcdcd" p-id="1116"></path></svg>