<?xml version="1.0" standalone="no"?><!DOCTYPE svg PUBLIC "-//W3C//DTD SVG 1.1//EN"
    "http://www.w3.org/Graphics/SVG/1.1/DTD/svg11.dtd">
<svg t="1566867150749" class="icon" viewBox="0 0 1024 1024" version="1.1" xmlns="http://www.w3.org/2000/svg"
     p-id="16762" xmlns:xlink="http://www.w3.org/1999/xlink" width="112" height="112">
    <defs>
        <style type="text/css"></style>
    </defs>
    <path
        d="M865.257934 561.798486L558.713962 212.314502v-7.753058a83.494467 83.494467 0 0 0 30.415841-19.084449L736.437899 24.451951C749.558458 11.331392 742.401789 0 725.702896 0h-536.750146C172.253857 0 167.482744 11.331392 180.006914 25.04834l149.097263 161.025044a75.741409 75.741409 0 0 0 20.277228 14.313337L146.012738 840.908561l307.140362 182.49505L759.697072 834.944671l-59.638905-186.073384 146.115317-29.223063a32.205009 32.205009 0 0 0 19.08445-57.849738zM293.917223 59.638905H623.123979L543.207846 144.922539a37.57251 37.57251 0 0 1-13.716948 5.963891H384.568359a36.976121 36.976121 0 0 1-13.716948-5.963891z m158.639488 894.583576l-235.573675-140.151427 185.476994-584.461269H503.846169l184.880606 579.093768zM682.762884 591.617938L604.635918 357.83343l187.862551 213.507281z"
        p-id="16763"></path>
</svg>
