<?xml version="1.0" standalone="no"?><!DOCTYPE svg PUBLIC "-//W3C//DTD SVG 1.1//EN" "http://www.w3.org/Graphics/SVG/1.1/DTD/svg11.dtd"><svg t="1566867491292" class="icon" viewBox="0 0 1116 1024" version="1.1" xmlns="http://www.w3.org/2000/svg" p-id="20354" xmlns:xlink="http://www.w3.org/1999/xlink" width="122.0625" height="112"><defs><style type="text/css"></style></defs><path d="M251.763593 827.914894h612.463357c19.36643 0 34.859574-15.977305 34.859575-34.859575 0-19.36643-15.493144-34.859574-34.859575-34.859574H251.763593c-19.36643 0-34.859574 15.493144-34.859574 34.859574 0 18.88227 15.493144 34.859574 34.859574 34.859575zM251.763593 632.798109h612.463357c19.36643 0 34.859574-15.493144 34.859575-34.859575 0-19.36643-15.493144-34.859574-34.859575-34.859574H251.763593c-19.36643 0-34.859574 15.493144-34.859574 34.859574 0 18.88227 15.493144 34.859574 34.859574 34.859575zM558.721513 6.29409c-19.36643 0-34.859574 15.493144-34.859574 34.859574V213.030733c0 19.36643 15.493144 34.859574 34.859574 34.859574s34.859574-15.493144 34.859574-34.859574V41.637825c0-19.36643-15.977305-35.343735-34.859574-35.343735zM389.265248 88.601418H464.794326v69.719149H389.265248zM652.6487 88.601418h75.529078v69.719149h-75.529078zM863.74279 351.016548H251.763593c-19.36643 0-34.859574 15.493144-34.859574 34.859575 0 19.36643 15.493144 34.859574 34.859574 34.859574h612.463357c19.36643 0 34.859574-15.493144 34.859575-34.859574 0-19.36643-15.977305-34.859574-35.343735-34.859575zM821.620804 6.29409c-19.36643 0-34.859574 15.493144-34.859575 34.859574V213.030733c0 19.850591 15.493144 34.859574 34.859575 34.859574 19.36643 0 34.859574-15.493144 34.859574-34.859574V41.637825c0-19.36643-15.493144-35.343735-34.859574-35.343735zM295.338061 6.29409c-19.36643 0-34.859574 15.493144-34.859574 34.859574V213.030733c0 19.36643 15.493144 34.859574 34.859574 34.859574s34.859574-15.493144 34.859575-34.375413V41.637825c0-19.36643-15.493144-35.343735-34.859575-35.343735z" p-id="20355" fill="#cdcdcd"></path><path d="M2.420804 205.284161v697.67565a121.040189 121.040189 0 0 0 121.040189 121.040189h870.036879c64.393381 0 117.166903-50.352719 120.556029-114.746099l0.48416-4.841608V205.284161c0-32.438771-12.58818-62.456738-35.343735-85.212293s-53.257683-35.343735-85.696454-35.343736h-77.949881v69.719149h77.949881c28.081324 0 51.32104 22.755556 51.321041 50.83688v697.67565c0 28.081324-22.755556 50.836879-51.321041 50.836879H123.460993c-25.176359 0-46.479433-18.88227-50.352719-43.090307H72.624113l-0.48416-8.230733 0.48416-697.191489c0-28.081324 22.755556-50.836879 50.83688-50.83688h77.949882V84.243972H123.460993a121.040189 121.040189 0 0 0-121.040189 121.040189z" p-id="20356" fill="#cdcdcd"></path></svg>