<?xml version="1.0" standalone="no"?><!DOCTYPE svg PUBLIC "-//W3C//DTD SVG 1.1//EN" "http://www.w3.org/Graphics/SVG/1.1/DTD/svg11.dtd"><svg t="1566867410102" class="icon" viewBox="0 0 1029 1024" version="1.1" xmlns="http://www.w3.org/2000/svg" p-id="19317" xmlns:xlink="http://www.w3.org/1999/xlink" width="112.546875" height="112"><defs><style type="text/css"></style></defs><path d="M788.48 942.08h-552.96c-20.48 0-40.96 40.96-40.96 40.96v40.96h629.76v-40.96c5.12-20.48-15.36-40.96-35.84-40.96z m117.76-942.08h-788.48c-66.56 0-117.76 56.32-117.76 122.88v573.44c0 66.56 51.2 122.88 117.76 122.88h276.48v40.96c0 20.48 15.36 40.96 40.96 40.96h158.72c20.48 0 40.96-20.48 40.96-40.96v-40.96h276.48c66.56 0 117.76-56.32 117.76-122.88v-573.44c-5.12-66.56-56.32-122.88-122.88-122.88z m-788.48 655.36c-20.48 0-40.96-20.48-40.96-40.96v-491.52c0-20.48 15.36-40.96 40.96-40.96h788.48c20.48 0 40.96 20.48 40.96 40.96v491.52c0 20.48-15.36 40.96-40.96 40.96h-788.48z m680.96-471.04l-128 133.12-92.16-92.16c-10.24-10.24-20.48-15.36-30.72-10.24-10.24 0-20.48 10.24-30.72 20.48l-117.76 215.04-46.08-128c-5.12-10.24-15.36-20.48-30.72-25.6-15.36-5.12-25.6 0-35.84 10.24l-117.76 122.88c-15.36 15.36-15.36 40.96 0 56.32 15.36 15.36 40.96 15.36 56.32 0l76.8-76.8 56.32 148.48c5.12 15.36 20.48 25.6 35.84 25.6h5.12c15.36 0 25.6-10.24 35.84-20.48l133.12-240.64 81.92 87.04c15.36 15.36 40.96 15.36 56.32 0l158.72-163.84c15.36-15.36 15.36-40.96 0-56.32-25.6-20.48-51.2-20.48-66.56-5.12z" fill="#cdcdcd" p-id="19318"></path></svg>