<?xml version="1.0" standalone="no"?><!DOCTYPE svg PUBLIC "-//W3C//DTD SVG 1.1//EN" "http://www.w3.org/Graphics/SVG/1.1/DTD/svg11.dtd"><svg t="1566868186757" class="icon" viewBox="0 0 1026 1024" version="1.1" xmlns="http://www.w3.org/2000/svg" p-id="8990" xmlns:xlink="http://www.w3.org/1999/xlink" width="112.21875" height="112"><defs><style type="text/css"></style></defs><path d="M382.77365 29.50206c0 0-127.588861 22.665392-237.556039 135.987302 68.523159 32.315673 135.146347 55.823029 135.146347 55.823029C319.399192 88.679821 382.77365 29.50206 382.77365 29.50206L382.77365 29.50206zM382.77365 29.50206" p-id="8991" fill="#cdcdcd"></path><path d="M113.32191 199.692892c0 0-102.620687 114.584856-113.32191 296.529871l239.234919 0c0 0-3.150803-99.476951 28.328963-231.683491C176.906354 238.099176 113.32191 199.692892 113.32191 199.692892L113.32191 199.692892zM113.32191 199.692892" p-id="8992" fill="#cdcdcd"></path><path d="M382.77365 1008.685137c0 0-127.588861-22.665392-237.556039-135.987302 68.523159-32.315673 135.146347-55.816972 135.146347-55.816972C319.399192 949.507375 382.77365 1008.685137 382.77365 1008.685137L382.77365 1008.685137zM382.77365 1008.685137" p-id="8993" fill="#cdcdcd"></path><path d="M113.32191 838.493295c0 0-102.620687-114.579809-113.32191-296.523814l239.234919 0c0 0-3.150803 99.470894 28.328963 231.677433C176.906354 800.08802 113.32191 838.493295 113.32191 838.493295L113.32191 838.493295zM113.32191 838.493295" p-id="8994" fill="#cdcdcd"></path><path d="M482.244544 16.490988c0 0-91.498483 14.274018-156.970784 214.892666 15.94987 6.715522 134.305393 25.349783 156.970784 20.987521C483.086508 218.794574 482.244544 16.490988 482.244544 16.490988L482.244544 16.490988zM482.244544 16.490988" p-id="8995" fill="#cdcdcd"></path><path d="M311.841706 275.872473c0 0-25.17816 95.695179-27.697995 220.345242l197.214448 0L481.358159 297.69792C481.359169 297.69792 423.487764 304.412432 311.841706 275.872473L311.841706 275.872473zM311.841706 275.872473" p-id="8996" fill="#cdcdcd"></path><path d="M482.244544 1021.274217c0 0-91.498483-14.26796-156.970784-214.891657 15.94987-6.716532 134.305393-25.350793 156.970784-20.982473C483.086508 818.977697 482.244544 1021.274217 482.244544 1021.274217L482.244544 1021.274217zM482.244544 1021.274217" p-id="8997" fill="#cdcdcd"></path><path d="M311.841706 761.892731c0 0-25.17816-95.690131-27.697995-220.345242l197.214448 0L481.358159 740.069304C481.359169 740.069304 423.487764 733.352772 311.841706 761.892731L311.841706 761.892731zM311.841706 761.892731" p-id="8998" fill="#cdcdcd"></path><path d="M627.417735 29.50206c0 0 127.588861 22.665392 237.557048 135.987302-68.518112 32.315673-135.147357 55.823029-135.147357 55.823029C690.796231 88.679821 627.417735 29.50206 627.417735 29.50206L627.417735 29.50206zM627.417735 29.50206" p-id="8999" fill="#cdcdcd"></path><path d="M896.874522 199.692892c0 0 102.61463 114.584856 113.316862 296.529871L770.956465 496.222763c0 0 3.150803-99.476951-28.328963-231.683491C833.283011 238.099176 896.874522 199.692892 896.874522 199.692892L896.874522 199.692892zM896.874522 199.692892" p-id="9000" fill="#cdcdcd"></path><path d="M627.417735 1008.685137c0 0 127.588861-22.665392 237.557048-135.987302-68.518112-32.315673-135.147357-55.816972-135.147357-55.816972C690.796231 949.507375 627.417735 1008.685137 627.417735 1008.685137L627.417735 1008.685137zM627.417735 1008.685137" p-id="9001" fill="#cdcdcd"></path><path d="M896.874522 838.493295c0 0 102.61463-114.579809 113.316862-296.523814L770.956465 541.969481c0 0 3.150803 99.470894-28.328963 231.677433C833.283011 800.08802 896.874522 838.493295 896.874522 838.493295L896.874522 838.493295zM896.874522 838.493295" p-id="9002" fill="#cdcdcd"></path><path d="M527.946841 16.490988c0 0 91.497473 14.274018 156.970784 214.892666-15.944822 6.715522-134.305393 25.349783-156.970784 20.987521C527.104877 218.794574 527.946841 16.490988 527.946841 16.490988L527.946841 16.490988zM527.946841 16.490988" p-id="9003" fill="#cdcdcd"></path><path d="M698.34766 275.872473c0 0 25.185227 95.695179 27.704052 220.345242L528.832216 496.217716 528.832216 297.69792C528.832216 297.69792 586.708668 304.412432 698.34766 275.872473L698.34766 275.872473zM698.34766 275.872473" p-id="9004" fill="#cdcdcd"></path><path d="M527.946841 1021.274217c0 0 91.497473-14.26796 156.970784-214.891657-15.944822-6.716532-134.305393-25.350793-156.970784-20.982473C527.104877 818.977697 527.946841 1021.274217 527.946841 1021.274217L527.946841 1021.274217zM527.946841 1021.274217" p-id="9005" fill="#cdcdcd"></path><path d="M698.34766 761.892731c0 0 25.185227-95.690131 27.704052-220.345242L528.832216 541.547489 528.832216 740.069304C528.832216 740.069304 586.708668 733.352772 698.34766 761.892731L698.34766 761.892731zM698.34766 761.892731" p-id="9006" fill="#cdcdcd"></path></svg>