<?xml version="1.0" standalone="no"?><!DOCTYPE svg PUBLIC "-//W3C//DTD SVG 1.1//EN" "http://www.w3.org/Graphics/SVG/1.1/DTD/svg11.dtd"><svg t="1566866893812" class="icon" viewBox="0 0 1024 1024" version="1.1" xmlns="http://www.w3.org/2000/svg" p-id="11846" xmlns:xlink="http://www.w3.org/1999/xlink" width="112" height="112"><defs><style type="text/css"></style></defs><path d="M850.383 983.951h-678.557c-37.477 0-67.857-28.359-67.857-63.349v-474.991c0-34.955 30.38-63.315 67.857-63.315h678.557c37.472 0 67.857 28.359 67.857 63.315v474.99c0 34.991-30.385 63.354-67.853 63.35h-0.004zM511.102 540.635c-56.228 0-101.781 42.512-101.781 94.992 0 35.057 20.61 65.375 50.893 81.807v90.386c0 27.298 22.791 49.467 50.894 49.467 28.093 0 50.894-22.169 50.894-49.467v-90.386c30.281-16.432 50.887-46.75 50.887-81.807 0-52.475-45.553-94.987-101.781-94.987l-0.005-0.005zM511.102 128.96c-112.418 0-203.568 85.056-203.568 189.986h-101.779c0-157.38 136.702-284.976 305.347-284.976s305.353 127.595 305.353 284.976h-101.781c0-104.931-91.15-189.986-203.571-189.986zM511.102 128.96z" fill="#cdcdcd" p-id="11847"></path></svg>