<?xml version="1.0" standalone="no"?><!DOCTYPE svg PUBLIC "-//W3C//DTD SVG 1.1//EN" "http://www.w3.org/Graphics/SVG/1.1/DTD/svg11.dtd"><svg t="1623242963434" class="icon" viewBox="0 0 1024 1024" version="1.1" xmlns="http://www.w3.org/2000/svg" p-id="584" xmlns:xlink="http://www.w3.org/1999/xlink" width="200" height="200"><defs><style type="text/css"></style></defs><path d="M513.590062 804.571429c-28.621118 0-50.881988 22.26087-50.881987 50.881987s22.26087 50.881988 50.881987 50.881988c28.621118 0 50.881988-22.26087 50.881988-50.881988s-22.26087-50.881988-50.881988-50.881987zM771.180124 3.180124H256c-44.521739 0-79.503106 34.981366-79.503106 79.503106v861.813664c0 44.521739 34.981366 79.503106 79.503106 79.503106h512c44.521739 0 79.503106-34.981366 79.503106-79.503106V79.503106c0-41.341615-34.981366-76.322981-76.322982-76.322982z m-502.459627 63.602485h489.73913c15.900621 0 25.440994 12.720497 25.440994 25.440993v601.043479h-540.621118V92.223602c0-12.720497 12.720497-25.440994 25.440994-25.440993zM758.459627 954.037267H268.720497c-15.900621 0-25.440994-12.720497-25.440994-25.440994V763.229814h540.621118v165.366459c0 12.720497-12.720497 25.440994-25.440994 25.440994z" p-id="585"></path></svg>