<svg t="1624761829544" class="icon" viewBox="0 0 1024 1024" version="1.1" xmlns="http://www.w3.org/2000/svg" p-id="3229"
     width="128" height="128">
    <path
        d="M378.034621 244.750999m-244.750999 0a244.750999 244.750999 0 1 0 489.501997 0 244.750999 244.750999 0 1 0-489.501997 0Z"
        p-id="3230"></path>
    <path
        d="M369.171771 586.993342h20.45273a340.878828 340.878828 0 0 1 340.878828 340.878828A97.491345 97.491345 0 0 1 629.603196 1022.636485H125.784288A97.491345 97.491345 0 0 1 28.292943 926.508655a340.878828 340.878828 0 0 1 340.878828-340.878828zM920.713715 321.789614a191.573901 191.573901 0 0 1-336.106525 124.761651 278.838881 278.838881 0 0 0 85.901465-204.527297 272.703063 272.703063 0 0 0-17.725699-98.173102 184.074567 184.074567 0 0 1 77.038615-16.362184 190.892144 190.892144 0 0 1 190.892144 194.300932z"
        p-id="3231"></path>
    <path
        d="M995.707057 818.109188a72.948069 72.948069 0 0 1-72.948069 72.948069H778.226365A370.194407 370.194407 0 0 0 584.60719 613.581891a248.159787 248.159787 0 0 1 143.169108-44.996006h14.998669A253.613848 253.613848 0 0 1 995.707057 818.109188z"
        p-id="3232"></path>
</svg>
