<?xml version="1.0" standalone="no"?><!DOCTYPE svg PUBLIC "-//W3C//DTD SVG 1.1//EN" "http://www.w3.org/Graphics/SVG/1.1/DTD/svg11.dtd"><svg t="1566866509554" class="icon" viewBox="0 0 1024 1024" version="1.1" xmlns="http://www.w3.org/2000/svg" p-id="6151" xmlns:xlink="http://www.w3.org/1999/xlink" width="112" height="112"><defs><style type="text/css"></style></defs><path d="M972.8 409.6h-64.512a406.528 406.528 0 0 0-43.52-105.472l45.568-45.568a51.2 51.2 0 0 0 0-72.192l-72.704-72.704a51.2 51.2 0 0 0-72.192 0l-45.568 45.568A406.528 406.528 0 0 0 614.4 115.712V51.2a51.2 51.2 0 0 0-51.2-51.2H460.8a51.2 51.2 0 0 0-51.2 51.2v64.512a406.528 406.528 0 0 0-105.472 43.52l-45.568-45.568a51.2 51.2 0 0 0-72.192 0L113.664 186.368a51.2 51.2 0 0 0 0 72.192l45.568 45.568A406.528 406.528 0 0 0 115.712 409.6H51.2a51.2 51.2 0 0 0-51.2 51.2v102.4a51.2 51.2 0 0 0 51.2 51.2h64.512a406.528 406.528 0 0 0 43.52 105.472l-45.568 45.568a51.2 51.2 0 0 0 0 72.192l72.192 72.192a51.2 51.2 0 0 0 72.192 0l45.568-45.568a406.528 406.528 0 0 0 105.984 44.032V972.8a51.2 51.2 0 0 0 51.2 51.2h102.4a51.2 51.2 0 0 0 51.2-51.2v-64.512a406.528 406.528 0 0 0 105.472-43.52l45.568 45.568a51.2 51.2 0 0 0 72.192 0l72.192-72.192a51.2 51.2 0 0 0 0-72.192l-45.568-45.568a406.528 406.528 0 0 0 44.032-105.984H972.8a51.2 51.2 0 0 0 51.2-51.2V460.8a51.2 51.2 0 0 0-51.2-51.2z m-460.8 307.2a204.8 204.8 0 1 1 204.8-204.8 204.8 204.8 0 0 1-204.8 204.8z" p-id="6152" fill="#cdcdcd"></path></svg>